<svg id="Epic_chest_30" enable-background="new 0 0 512 512" height="30" viewBox="0 0 512 512" width="30" xmlns="http://www.w3.org/2000/svg">
  <path d="m27.5 166.168h457v318.332h-457z" fill="#C4B5FD"/>
  <path d="m27.5 166.168h40v318.332h-40z" fill="#7C3AED"/>
  <path d="m484.5 166.168h-457v-58.668c0-55.228 44.772-100 100-100h257c55.228 0 100 44.772 100 100z" fill="#C4B5FD"/>
  <path d="m167.5 7.5h-40c-55.228 0-100 44.772-100 100v58.668h40v-58.668c0-55.228 44.772-100 100-100z" fill="#7C3AED"/>
  <path d="m424.5 106.168h-337c-11.046 0-20-8.954-20-20v-10.47c0-37.665 30.533-68.198 68.198-68.198h240.604c37.665 0 68.198 30.533 68.198 68.198v10.47c0 11.045-8.954 20-20 20z" fill="#8B5CF6"/>
  <path d="m107.5 86.168v-10.47c0-37.665 30.533-68.198 68.198-68.198h-40c-37.665 0-68.198 30.533-68.198 68.198v10.469c0 11.046 8.954 20 20 20h40c-11.046.001-20-8.954-20-19.999z" fill="#7C3AED"/>
  <path d="m484.5 186.168h-457c-11.046 0-20-8.954-20-20 0-11.046 8.954-20 20-20h457c11.046 0 20 8.954 20 20 0 11.045-8.954 20-20 20z" fill="#C4B5FD"/>
  <path d="m47.5 166.168c0-11.046 8.954-20 20-20h-40c-11.046 0-20 8.954-20 20s8.954 20 20 20h40c-11.046 0-20-8.955-20-20z" fill="#C4B5FD"/>
  <path d="m484.5 504.5h-457c-11.046 0-20-8.954-20-20 0-11.046 8.954-20 20-20h457c11.046 0 20 8.954 20 20 0 11.046-8.954 20-20 20z" fill="#C4B5FD"/>
  <path d="m47.5 484.5c0-11.046 8.954-20 20-20h-40c-11.046 0-20 8.954-20 20s8.954 20 20 20h40c-11.046 0-20-8.954-20-20z" fill="#C4B5FD"/>
  <path d="m67.5 256.168v139.832c16.065 0 29.18 12.628 29.962 28.5h317.076c.782-15.872 13.897-28.5 29.962-28.5v-139.832c-16.569 0-30-13.431-30-30h-317c0 16.568-13.431 30-30 30z" fill="#8B5CF6"/>
  <ellipse cx="176.355" cy="333.602" fill="#f5f5fc" rx="29.387" ry="23.403"/>
  <ellipse cx="335.645" cy="333.602" fill="#f5f5fc" rx="29.387" ry="23.403"/>
  <path d="m279.694 315.621c0-14.643-10.608-16.019-23.693-16.019-13.086 0-23.694 1.376-23.694 16.019s10.608 26.513 23.694 26.513c13.085 0 23.693-11.87 23.693-26.513z" fill="#495560"/>
  <path d="m181.268 313.163c-4.142 0-7.5-3.358-7.5-7.5v-12c0-4.142 3.358-7.5 7.5-7.5s7.5 3.358 7.5 7.5v12c0 4.142-3.358 7.5-7.5 7.5z"/>
  <path d="m256 349.634c-17.2 0-31.193-15.258-31.193-34.013 0-23.519 21.859-23.519 31.193-23.519s31.193 0 31.193 23.519c0 18.755-13.993 34.013-31.193 34.013zm0-42.531c-15.539 0-16.193 2.611-16.193 8.519 0 10.484 7.264 19.013 16.193 19.013s16.193-8.529 16.193-19.013c0-5.908-.654-8.519-16.193-8.519z"/>
  <path d="m330.732 313.163c-4.142 0-7.5-3.358-7.5-7.5v-12c0-4.142 3.358-7.5 7.5-7.5s7.5 3.358 7.5 7.5v12c0 4.142-3.358 7.5-7.5 7.5z"/>
  <path d="m107.5 226.168h-10c0 16.569-13.431 30-30 30v139.832c16.065 0 29.18 12.628 29.962 28.5h10.038z" fill="#7C3AED"/>
  <path d="m296 236.168h-80c-5.523 0-10-4.477-10-10v-120c0-5.523 4.477-10 10-10h80c5.523 0 10 4.477 10 10v120c0 5.522-4.477 10-10 10z" fill="#fff"/>
  <path d="m256 226.168v-120c0-5.523 4.477-10 10-10h-50c-5.523 0-10 4.477-10 10v120c0 5.523 4.477 10 10 10h50c-5.523 0-10-4.478-10-10z" fill="#C4B5FD"/>
  <circle cx="256" cy="158.668" fill="#8B5CF6" r="20"/>
  <path d="m492 458.048v-265.429c11.528-3.274 20-13.889 20-26.452s-8.472-23.178-20-26.452v-32.215c0-59.276-48.224-107.5-107.5-107.5h-257c-59.276 0-107.5 48.224-107.5 107.5v32.216c-11.528 3.274-20 13.889-20 26.452s8.472 23.178 20 26.452v265.429c-11.528 3.273-20 13.888-20 26.451 0 15.164 12.336 27.5 27.5 27.5h457c15.164 0 27.5-12.336 27.5-27.5 0-12.563-8.472-23.178-20-26.452zm-293.5-264.381v25h-101c-4.142 0-7.5 3.358-7.5 7.5 0 12.407-10.093 22.5-22.5 22.5-4.142 0-7.5 3.358-7.5 7.5v139.833c0 4.142 3.358 7.5 7.5 7.5 12.01 0 21.881 9.386 22.471 21.369.196 3.994 3.492 7.131 7.491 7.131h219.27c4.142 0 7.5-3.358 7.5-7.5s-3.358-7.5-7.5-7.5h-212.816c-3.444-14.047-14.75-24.884-28.916-27.752v-126.334c14.671-2.99 26.256-14.576 29.247-29.247h95.966c2.816 5.902 8.824 10 15.787 10h80c6.963 0 12.972-4.098 15.787-10h95.966c2.99 14.671 14.576 26.256 29.247 29.247v126.334c-14.166 2.868-25.472 13.705-28.916 27.752h-63.353c-4.142 0-7.5 3.358-7.5 7.5s3.358 7.5 7.5 7.5h69.806c3.999 0 7.294-3.137 7.491-7.131.59-11.983 10.461-21.369 22.471-21.369 4.142 0 7.5-3.358 7.5-7.5v-139.833c0-4.142-3.358-7.5-7.5-7.5-12.407 0-22.5-10.093-22.5-22.5 0-4.142-3.358-7.5-7.5-7.5h-101v-25h163.501v263.333h-442v-263.333zm-123.5-117.969c0-33.469 27.229-60.698 60.698-60.698h240.604c33.469 0 60.698 27.229 60.698 60.698v10.469c0 6.893-5.607 12.5-12.5 12.5h-112.713c-2.816-5.902-8.824-10-15.787-10h-80c-6.963 0-12.972 4.098-15.787 10h-112.713c-6.893 0-12.5-5.607-12.5-12.5zm138.5 30.469c0-1.378 1.122-2.5 2.5-2.5h80c1.378 0 2.5 1.122 2.5 2.5v120c0 1.378-1.122 2.5-2.5 2.5h-80c-1.378 0-2.5-1.122-2.5-2.5zm283.5 60c0 6.893-5.607 12.5-12.5 12.5h-171v-25h170.99.01.005c6.89.003 12.495 5.61 12.495 12.5zm-20-58.667v31.167h-163.5v-25h111c15.164 0 27.5-12.336 27.5-27.5v-10.469c0-16.16-5.106-31.14-13.767-43.448 23.454 16.796 38.767 44.267 38.767 75.25zm-462 58.667c0-6.891 5.605-12.497 12.495-12.5h.005.01 109.24c4.142 0 7.5-3.358 7.5-7.5s-3.358-7.5-7.5-7.5h-101.75v-31.167c0-30.983 15.313-58.454 38.767-75.25-8.661 12.308-13.767 27.289-13.767 43.448v10.469c0 15.164 12.336 27.5 27.5 27.5h111v25h-33.75c-4.142 0-7.5 3.358-7.5 7.5s3.358 7.5 7.5 7.5h33.75v25h-171c-6.893 0-12.5-5.607-12.5-12.5zm469.5 330.833h-457c-6.893 0-12.5-5.607-12.5-12.5s5.607-12.5 12.5-12.5h457c6.893 0 12.5 5.607 12.5 12.5s-5.607 12.5-12.5 12.5z"/><path d="m248.5 185.119v8.548c0 4.142 3.358 7.5 7.5 7.5s7.5-3.358 7.5-7.5v-8.548c11.528-3.274 20-13.889 20-26.452 0-15.164-12.336-27.5-27.5-27.5s-27.5 12.336-27.5 27.5c0 12.564 8.472 23.179 20 26.452zm7.5-38.952c6.893 0 12.5 5.607 12.5 12.5s-5.607 12.5-12.5 12.5-12.5-5.607-12.5-12.5 5.607-12.5 12.5-12.5z"/>
</svg>